<?xml version="1.0" encoding="UTF-8" standalone="no"?>
<!DOCTYPE svg PUBLIC "-//W3C//DTD SVG 1.1//EN"
 "http://www.w3.org/Graphics/SVG/1.1/DTD/svg11.dtd">
<!-- Generated by graphviz version 2.42.3 (20191010.1750)
 -->
<!-- Title: snakemake_dag Pages: 1 -->
<svg width="360pt" height="1700pt"
 viewBox="0.00 0.00 360.00 1700.00" xmlns="http://www.w3.org/2000/svg" xmlns:xlink="http://www.w3.org/1999/xlink">
<g id="graph0" class="graph" transform="scale(1 1) rotate(0) translate(4 1696)">
<title>snakemake_dag</title>
<polygon fill="white" stroke="transparent" points="-4,4 -4,-1696 356,-1696 356,4 -4,4"/>
<!-- 0 -->
<g id="node1" class="node">
<title>0</title>
<path fill="none" stroke="#59d856" stroke-width="2" d="M305.5,-36C305.5,-36 270.5,-36 270.5,-36 264.5,-36 258.5,-30 258.5,-24 258.5,-24 258.5,-12 258.5,-12 258.5,-6 264.5,0 270.5,0 270.5,0 305.5,0 305.5,0 311.5,0 317.5,-6 317.5,-12 317.5,-12 317.5,-24 317.5,-24 317.5,-30 311.5,-36 305.5,-36"/>
<text text-anchor="middle" x="288" y="-15.5" font-family="sans" font-size="10.00">qc_vcf_2</text>
</g>
<!-- 1 -->
<g id="node2" class="node">
<title>1</title>
<path fill="none" stroke="#56d86b" stroke-width="2" d="M318.5,-108C318.5,-108 257.5,-108 257.5,-108 251.5,-108 245.5,-102 245.5,-96 245.5,-96 245.5,-84 245.5,-84 245.5,-78 251.5,-72 257.5,-72 257.5,-72 318.5,-72 318.5,-72 324.5,-72 330.5,-78 330.5,-84 330.5,-84 330.5,-96 330.5,-96 330.5,-102 324.5,-108 318.5,-108"/>
<text text-anchor="middle" x="288" y="-87.5" font-family="sans" font-size="10.00">rm_dup_vcf_2</text>
</g>
<!-- 1&#45;&gt;0 -->
<g id="edge1" class="edge">
<title>1&#45;&gt;0</title>
<path fill="none" stroke="grey" stroke-width="2" d="M288,-71.7C288,-63.98 288,-54.71 288,-46.11"/>
<polygon fill="grey" stroke="grey" stroke-width="2" points="291.5,-46.1 288,-36.1 284.5,-46.1 291.5,-46.1"/>
</g>
<!-- 2 -->
<g id="node3" class="node">
<title>2</title>
<path fill="none" stroke="#56d8a9" stroke-width="2" d="M330.5,-180C330.5,-180 245.5,-180 245.5,-180 239.5,-180 233.5,-174 233.5,-168 233.5,-168 233.5,-156 233.5,-156 233.5,-150 239.5,-144 245.5,-144 245.5,-144 330.5,-144 330.5,-144 336.5,-144 342.5,-150 342.5,-156 342.5,-156 342.5,-168 342.5,-168 342.5,-174 336.5,-180 330.5,-180"/>
<text text-anchor="middle" x="288" y="-159.5" font-family="sans" font-size="10.00">freebayes_clusters</text>
</g>
<!-- 2&#45;&gt;1 -->
<g id="edge2" class="edge">
<title>2&#45;&gt;1</title>
<path fill="none" stroke="grey" stroke-width="2" d="M288,-143.7C288,-135.98 288,-126.71 288,-118.11"/>
<polygon fill="grey" stroke="grey" stroke-width="2" points="291.5,-118.1 288,-108.1 284.5,-118.1 291.5,-118.1"/>
</g>
<!-- 3 -->
<g id="node4" class="node">
<title>3</title>
<path fill="none" stroke="#567bd8" stroke-width="2" d="M330.5,-252C330.5,-252 245.5,-252 245.5,-252 239.5,-252 233.5,-246 233.5,-240 233.5,-240 233.5,-228 233.5,-228 233.5,-222 239.5,-216 245.5,-216 245.5,-216 330.5,-216 330.5,-216 336.5,-216 342.5,-222 342.5,-228 342.5,-228 342.5,-240 342.5,-240 342.5,-246 336.5,-252 330.5,-252"/>
<text text-anchor="middle" x="288" y="-231.5" font-family="sans" font-size="10.00">merge_by_clusters</text>
</g>
<!-- 3&#45;&gt;2 -->
<g id="edge3" class="edge">
<title>3&#45;&gt;2</title>
<path fill="none" stroke="grey" stroke-width="2" d="M288,-215.7C288,-207.98 288,-198.71 288,-190.11"/>
<polygon fill="grey" stroke="grey" stroke-width="2" points="291.5,-190.1 288,-180.1 284.5,-190.1 291.5,-190.1"/>
</g>
<!-- 4 -->
<g id="node5" class="node">
<title>4</title>
<path fill="none" stroke="#d8cb56" stroke-width="2" d="M314,-324C314,-324 262,-324 262,-324 256,-324 250,-318 250,-312 250,-312 250,-300 250,-300 250,-294 256,-288 262,-288 262,-288 314,-288 314,-288 320,-288 326,-294 326,-300 326,-300 326,-312 326,-312 326,-318 320,-324 314,-324"/>
<text text-anchor="middle" x="288" y="-303.5" font-family="sans" font-size="10.00">get_clusters</text>
</g>
<!-- 4&#45;&gt;3 -->
<g id="edge4" class="edge">
<title>4&#45;&gt;3</title>
<path fill="none" stroke="grey" stroke-width="2" d="M288,-287.7C288,-279.98 288,-270.71 288,-262.11"/>
<polygon fill="grey" stroke="grey" stroke-width="2" points="291.5,-262.1 288,-252.1 284.5,-262.1 291.5,-262.1"/>
</g>
<!-- 5 -->
<g id="node6" class="node">
<title>5</title>
<path fill="none" stroke="#56d892" stroke-width="2" d="M310,-396C310,-396 266,-396 266,-396 260,-396 254,-390 254,-384 254,-384 254,-372 254,-372 254,-366 260,-360 266,-360 266,-360 310,-360 310,-360 316,-360 322,-366 322,-372 322,-372 322,-384 322,-384 322,-390 316,-396 310,-396"/>
<text text-anchor="middle" x="288" y="-375.5" font-family="sans" font-size="10.00">filter_cells</text>
</g>
<!-- 5&#45;&gt;4 -->
<g id="edge5" class="edge">
<title>5&#45;&gt;4</title>
<path fill="none" stroke="grey" stroke-width="2" d="M288,-359.7C288,-351.98 288,-342.71 288,-334.11"/>
<polygon fill="grey" stroke="grey" stroke-width="2" points="291.5,-334.1 288,-324.1 284.5,-334.1 291.5,-334.1"/>
</g>
<!-- 6 -->
<g id="node7" class="node">
<title>6</title>
<path fill="none" stroke="#d85656" stroke-width="2" d="M314,-468C314,-468 262,-468 262,-468 256,-468 250,-462 250,-456 250,-456 250,-444 250,-444 250,-438 256,-432 262,-432 262,-432 314,-432 314,-432 320,-432 326,-438 326,-444 326,-444 326,-456 326,-456 326,-462 320,-468 314,-468"/>
<text text-anchor="middle" x="288" y="-447.5" font-family="sans" font-size="10.00">merge_cells</text>
</g>
<!-- 6&#45;&gt;5 -->
<g id="edge6" class="edge">
<title>6&#45;&gt;5</title>
<path fill="none" stroke="grey" stroke-width="2" d="M288,-431.7C288,-423.98 288,-414.71 288,-406.11"/>
<polygon fill="grey" stroke="grey" stroke-width="2" points="291.5,-406.1 288,-396.1 284.5,-406.1 291.5,-406.1"/>
</g>
<!-- 7 -->
<g id="node8" class="node">
<title>7</title>
<path fill="none" stroke="#68d856" stroke-width="2" d="M326.5,-540C326.5,-540 249.5,-540 249.5,-540 243.5,-540 237.5,-534 237.5,-528 237.5,-528 237.5,-516 237.5,-516 237.5,-510 243.5,-504 249.5,-504 249.5,-504 326.5,-504 326.5,-504 332.5,-504 338.5,-510 338.5,-516 338.5,-516 338.5,-528 338.5,-528 338.5,-534 332.5,-540 326.5,-540"/>
<text text-anchor="middle" x="288" y="-519.5" font-family="sans" font-size="10.00">generate_pileups</text>
</g>
<!-- 7&#45;&gt;6 -->
<g id="edge7" class="edge">
<title>7&#45;&gt;6</title>
<path fill="none" stroke="grey" stroke-width="2" d="M288,-503.7C288,-495.98 288,-486.71 288,-478.11"/>
<polygon fill="grey" stroke="grey" stroke-width="2" points="291.5,-478.1 288,-468.1 284.5,-478.1 291.5,-478.1"/>
</g>
<!-- 8 -->
<g id="node9" class="node">
<title>8</title>
<path fill="none" stroke="#d89556" stroke-width="2" d="M305.5,-612C305.5,-612 270.5,-612 270.5,-612 264.5,-612 258.5,-606 258.5,-600 258.5,-600 258.5,-588 258.5,-588 258.5,-582 264.5,-576 270.5,-576 270.5,-576 305.5,-576 305.5,-576 311.5,-576 317.5,-582 317.5,-588 317.5,-588 317.5,-600 317.5,-600 317.5,-606 311.5,-612 305.5,-612"/>
<text text-anchor="middle" x="288" y="-591.5" font-family="sans" font-size="10.00">qc_vcf_1</text>
</g>
<!-- 8&#45;&gt;7 -->
<g id="edge8" class="edge">
<title>8&#45;&gt;7</title>
<path fill="none" stroke="grey" stroke-width="2" d="M288,-575.7C288,-567.98 288,-558.71 288,-550.11"/>
<polygon fill="grey" stroke="grey" stroke-width="2" points="291.5,-550.1 288,-540.1 284.5,-550.1 291.5,-550.1"/>
</g>
<!-- 9 -->
<g id="node10" class="node">
<title>9</title>
<path fill="none" stroke="#56a9d8" stroke-width="2" d="M318.5,-684C318.5,-684 257.5,-684 257.5,-684 251.5,-684 245.5,-678 245.5,-672 245.5,-672 245.5,-660 245.5,-660 245.5,-654 251.5,-648 257.5,-648 257.5,-648 318.5,-648 318.5,-648 324.5,-648 330.5,-654 330.5,-660 330.5,-660 330.5,-672 330.5,-672 330.5,-678 324.5,-684 318.5,-684"/>
<text text-anchor="middle" x="288" y="-663.5" font-family="sans" font-size="10.00">rm_dup_vcf_1</text>
</g>
<!-- 9&#45;&gt;8 -->
<g id="edge9" class="edge">
<title>9&#45;&gt;8</title>
<path fill="none" stroke="grey" stroke-width="2" d="M288,-647.7C288,-639.98 288,-630.71 288,-622.11"/>
<polygon fill="grey" stroke="grey" stroke-width="2" points="291.5,-622.1 288,-612.1 284.5,-622.1 291.5,-622.1"/>
</g>
<!-- 10 -->
<g id="node11" class="node">
<title>10</title>
<path fill="none" stroke="#ced856" stroke-width="2" d="M340,-756C340,-756 236,-756 236,-756 230,-756 224,-750 224,-744 224,-744 224,-732 224,-732 224,-726 230,-720 236,-720 236,-720 340,-720 340,-720 346,-720 352,-726 352,-732 352,-732 352,-744 352,-744 352,-750 346,-756 340,-756"/>
<text text-anchor="middle" x="288" y="-735.5" font-family="sans" font-size="10.00">freebayes_clusters_MT</text>
</g>
<!-- 10&#45;&gt;9 -->
<g id="edge10" class="edge">
<title>10&#45;&gt;9</title>
<path fill="none" stroke="grey" stroke-width="2" d="M288,-719.7C288,-711.98 288,-702.71 288,-694.11"/>
<polygon fill="grey" stroke="grey" stroke-width="2" points="291.5,-694.1 288,-684.1 284.5,-694.1 291.5,-694.1"/>
</g>
<!-- 11 -->
<g id="node12" class="node">
<title>11</title>
<path fill="none" stroke="#566bd8" stroke-width="2" d="M340,-828C340,-828 236,-828 236,-828 230,-828 224,-822 224,-816 224,-816 224,-804 224,-804 224,-798 230,-792 236,-792 236,-792 340,-792 340,-792 346,-792 352,-798 352,-804 352,-804 352,-816 352,-816 352,-822 346,-828 340,-828"/>
<text text-anchor="middle" x="288" y="-807.5" font-family="sans" font-size="10.00">merge_by_clusters_MT</text>
</g>
<!-- 11&#45;&gt;10 -->
<g id="edge11" class="edge">
<title>11&#45;&gt;10</title>
<path fill="none" stroke="grey" stroke-width="2" d="M288,-791.7C288,-783.98 288,-774.71 288,-766.11"/>
<polygon fill="grey" stroke="grey" stroke-width="2" points="291.5,-766.1 288,-756.1 284.5,-766.1 291.5,-766.1"/>
</g>
<!-- 12 -->
<g id="node13" class="node">
<title>12</title>
<path fill="none" stroke="#d8a456" stroke-width="2" d="M323.5,-900C323.5,-900 252.5,-900 252.5,-900 246.5,-900 240.5,-894 240.5,-888 240.5,-888 240.5,-876 240.5,-876 240.5,-870 246.5,-864 252.5,-864 252.5,-864 323.5,-864 323.5,-864 329.5,-864 335.5,-870 335.5,-876 335.5,-876 335.5,-888 335.5,-888 335.5,-894 329.5,-900 323.5,-900"/>
<text text-anchor="middle" x="288" y="-879.5" font-family="sans" font-size="10.00">get_clusters_MT</text>
</g>
<!-- 12&#45;&gt;11 -->
<g id="edge12" class="edge">
<title>12&#45;&gt;11</title>
<path fill="none" stroke="grey" stroke-width="2" d="M288,-863.7C288,-855.98 288,-846.71 288,-838.11"/>
<polygon fill="grey" stroke="grey" stroke-width="2" points="291.5,-838.1 288,-828.1 284.5,-838.1 291.5,-838.1"/>
</g>
<!-- 13 -->
<g id="node14" class="node">
<title>13</title>
<path fill="none" stroke="#d8bc56" stroke-width="2" d="M319.5,-972C319.5,-972 256.5,-972 256.5,-972 250.5,-972 244.5,-966 244.5,-960 244.5,-960 244.5,-948 244.5,-948 244.5,-942 250.5,-936 256.5,-936 256.5,-936 319.5,-936 319.5,-936 325.5,-936 331.5,-942 331.5,-948 331.5,-948 331.5,-960 331.5,-960 331.5,-966 325.5,-972 319.5,-972"/>
<text text-anchor="middle" x="288" y="-951.5" font-family="sans" font-size="10.00">filter_cells_MT</text>
</g>
<!-- 13&#45;&gt;12 -->
<g id="edge13" class="edge">
<title>13&#45;&gt;12</title>
<path fill="none" stroke="grey" stroke-width="2" d="M288,-935.7C288,-927.98 288,-918.71 288,-910.11"/>
<polygon fill="grey" stroke="grey" stroke-width="2" points="291.5,-910.1 288,-900.1 284.5,-910.1 291.5,-910.1"/>
</g>
<!-- 14 -->
<g id="node15" class="node">
<title>14</title>
<path fill="none" stroke="#a7d856" stroke-width="2" d="M323.5,-1044C323.5,-1044 252.5,-1044 252.5,-1044 246.5,-1044 240.5,-1038 240.5,-1032 240.5,-1032 240.5,-1020 240.5,-1020 240.5,-1014 246.5,-1008 252.5,-1008 252.5,-1008 323.5,-1008 323.5,-1008 329.5,-1008 335.5,-1014 335.5,-1020 335.5,-1020 335.5,-1032 335.5,-1032 335.5,-1038 329.5,-1044 323.5,-1044"/>
<text text-anchor="middle" x="288" y="-1023.5" font-family="sans" font-size="10.00">merge_cells_MT</text>
</g>
<!-- 14&#45;&gt;13 -->
<g id="edge14" class="edge">
<title>14&#45;&gt;13</title>
<path fill="none" stroke="grey" stroke-width="2" d="M288,-1007.7C288,-999.98 288,-990.71 288,-982.11"/>
<polygon fill="grey" stroke="grey" stroke-width="2" points="291.5,-982.1 288,-972.1 284.5,-982.1 291.5,-982.1"/>
</g>
<!-- 15 -->
<g id="node16" class="node">
<title>15</title>
<path fill="none" stroke="#56d87b" stroke-width="2" d="M336,-1116C336,-1116 240,-1116 240,-1116 234,-1116 228,-1110 228,-1104 228,-1104 228,-1092 228,-1092 228,-1086 234,-1080 240,-1080 240,-1080 336,-1080 336,-1080 342,-1080 348,-1086 348,-1092 348,-1092 348,-1104 348,-1104 348,-1110 342,-1116 336,-1116"/>
<text text-anchor="middle" x="288" y="-1095.5" font-family="sans" font-size="10.00">generate_pileups_MT</text>
</g>
<!-- 15&#45;&gt;14 -->
<g id="edge15" class="edge">
<title>15&#45;&gt;14</title>
<path fill="none" stroke="grey" stroke-width="2" d="M288,-1079.7C288,-1071.98 288,-1062.71 288,-1054.11"/>
<polygon fill="grey" stroke="grey" stroke-width="2" points="291.5,-1054.1 288,-1044.1 284.5,-1054.1 291.5,-1054.1"/>
</g>
<!-- 16 -->
<g id="node17" class="node">
<title>16</title>
<path fill="none" stroke="#b6d856" stroke-width="2" d="M279,-1188C279,-1188 235,-1188 235,-1188 229,-1188 223,-1182 223,-1176 223,-1176 223,-1164 223,-1164 223,-1158 229,-1152 235,-1152 235,-1152 279,-1152 279,-1152 285,-1152 291,-1158 291,-1164 291,-1164 291,-1176 291,-1176 291,-1182 285,-1188 279,-1188"/>
<text text-anchor="middle" x="257" y="-1167.5" font-family="sans" font-size="10.00">qc_vcf_MT</text>
</g>
<!-- 16&#45;&gt;15 -->
<g id="edge16" class="edge">
<title>16&#45;&gt;15</title>
<path fill="none" stroke="grey" stroke-width="2" d="M264.66,-1151.7C268.19,-1143.73 272.46,-1134.1 276.37,-1125.26"/>
<polygon fill="grey" stroke="grey" stroke-width="2" points="279.58,-1126.67 280.43,-1116.1 273.18,-1123.83 279.58,-1126.67"/>
</g>
<!-- 17 -->
<g id="node18" class="node">
<title>17</title>
<path fill="none" stroke="#56d8b9" stroke-width="2" d="M193.5,-1260C193.5,-1260 132.5,-1260 132.5,-1260 126.5,-1260 120.5,-1254 120.5,-1248 120.5,-1248 120.5,-1236 120.5,-1236 120.5,-1230 126.5,-1224 132.5,-1224 132.5,-1224 193.5,-1224 193.5,-1224 199.5,-1224 205.5,-1230 205.5,-1236 205.5,-1236 205.5,-1248 205.5,-1248 205.5,-1254 199.5,-1260 193.5,-1260"/>
<text text-anchor="middle" x="163" y="-1239.5" font-family="sans" font-size="10.00">freebayes_MT</text>
</g>
<!-- 17&#45;&gt;16 -->
<g id="edge18" class="edge">
<title>17&#45;&gt;16</title>
<path fill="none" stroke="grey" stroke-width="2" d="M186.24,-1223.7C198.19,-1214.8 212.92,-1203.82 225.85,-1194.2"/>
<polygon fill="grey" stroke="grey" stroke-width="2" points="228.1,-1196.88 234.03,-1188.1 223.92,-1191.27 228.1,-1196.88"/>
</g>
<!-- 18 -->
<g id="node19" class="node">
<title>18</title>
<path fill="none" stroke="#5692d8" stroke-width="2" d="M136,-1404C136,-1404 12,-1404 12,-1404 6,-1404 0,-1398 0,-1392 0,-1392 0,-1380 0,-1380 0,-1374 6,-1368 12,-1368 12,-1368 136,-1368 136,-1368 142,-1368 148,-1374 148,-1380 148,-1380 148,-1392 148,-1392 148,-1398 142,-1404 136,-1404"/>
<text text-anchor="middle" x="74" y="-1383.5" font-family="sans" font-size="10.00">samtools_extract_bam_MT</text>
</g>
<!-- 18&#45;&gt;17 -->
<g id="edge19" class="edge">
<title>18&#45;&gt;17</title>
<path fill="none" stroke="grey" stroke-width="2" d="M41.47,-1367.98C28.21,-1359.18 14.3,-1347.09 7,-1332 0.03,-1317.6 -2.32,-1309.01 7,-1296 30.27,-1263.51 74.61,-1250.7 110.08,-1245.76"/>
<polygon fill="grey" stroke="grey" stroke-width="2" points="110.79,-1249.2 120.3,-1244.52 109.95,-1242.25 110.79,-1249.2"/>
</g>
<!-- 23 -->
<g id="node24" class="node">
<title>23</title>
<path fill="none" stroke="#8fd856" stroke-width="2" d="M144,-1332C144,-1332 28,-1332 28,-1332 22,-1332 16,-1326 16,-1320 16,-1320 16,-1308 16,-1308 16,-1302 22,-1296 28,-1296 28,-1296 144,-1296 144,-1296 150,-1296 156,-1302 156,-1308 156,-1308 156,-1320 156,-1320 156,-1326 150,-1332 144,-1332"/>
<text text-anchor="middle" x="86" y="-1311.5" font-family="sans" font-size="10.00">samtools_index_bam_MT</text>
</g>
<!-- 18&#45;&gt;23 -->
<g id="edge29" class="edge">
<title>18&#45;&gt;23</title>
<path fill="none" stroke="grey" stroke-width="2" d="M76.97,-1367.7C78.29,-1359.98 79.88,-1350.71 81.35,-1342.11"/>
<polygon fill="grey" stroke="grey" stroke-width="2" points="84.83,-1342.55 83.07,-1332.1 77.93,-1341.37 84.83,-1342.55"/>
</g>
<!-- 19 -->
<g id="node20" class="node">
<title>19</title>
<path fill="none" stroke="#d86e56" stroke-width="2" d="M178.5,-1692C178.5,-1692 119.5,-1692 119.5,-1692 113.5,-1692 107.5,-1686 107.5,-1680 107.5,-1680 107.5,-1668 107.5,-1668 107.5,-1662 113.5,-1656 119.5,-1656 119.5,-1656 178.5,-1656 178.5,-1656 184.5,-1656 190.5,-1662 190.5,-1668 190.5,-1668 190.5,-1680 190.5,-1680 190.5,-1686 184.5,-1692 178.5,-1692"/>
<text text-anchor="middle" x="149" y="-1677" font-family="sans" font-size="10.00">reduced_cells</text>
<text text-anchor="middle" x="149" y="-1666" font-family="sans" font-size="10.00">sample: cells</text>
</g>
<!-- 19&#45;&gt;18 -->
<g id="edge22" class="edge">
<title>19&#45;&gt;18</title>
<path fill="none" stroke="grey" stroke-width="2" d="M123.68,-1655.82C112.26,-1646.62 99.83,-1634.24 93,-1620 60.33,-1551.88 65.13,-1459.63 70.18,-1414.36"/>
<polygon fill="grey" stroke="grey" stroke-width="2" points="73.68,-1414.51 71.41,-1404.16 66.73,-1413.67 73.68,-1414.51"/>
</g>
<!-- 20 -->
<g id="node21" class="node">
<title>20</title>
<path fill="none" stroke="#56d0d8" stroke-width="2" d="M184,-1620C184,-1620 114,-1620 114,-1620 108,-1620 102,-1614 102,-1608 102,-1608 102,-1596 102,-1596 102,-1590 108,-1584 114,-1584 114,-1584 184,-1584 184,-1584 190,-1584 196,-1590 196,-1596 196,-1596 196,-1608 196,-1608 196,-1614 190,-1620 184,-1620"/>
<text text-anchor="middle" x="149" y="-1599.5" font-family="sans" font-size="10.00">samtools_index</text>
</g>
<!-- 19&#45;&gt;20 -->
<g id="edge25" class="edge">
<title>19&#45;&gt;20</title>
<path fill="none" stroke="grey" stroke-width="2" d="M149,-1655.7C149,-1647.98 149,-1638.71 149,-1630.11"/>
<polygon fill="grey" stroke="grey" stroke-width="2" points="152.5,-1630.1 149,-1620.1 145.5,-1630.1 152.5,-1630.1"/>
</g>
<!-- 22 -->
<g id="node23" class="node">
<title>22</title>
<path fill="none" stroke="#56d8d0" stroke-width="2" d="M265.5,-1548C265.5,-1548 182.5,-1548 182.5,-1548 176.5,-1548 170.5,-1542 170.5,-1536 170.5,-1536 170.5,-1524 170.5,-1524 170.5,-1518 176.5,-1512 182.5,-1512 182.5,-1512 265.5,-1512 265.5,-1512 271.5,-1512 277.5,-1518 277.5,-1524 277.5,-1524 277.5,-1536 277.5,-1536 277.5,-1542 271.5,-1548 265.5,-1548"/>
<text text-anchor="middle" x="224" y="-1527.5" font-family="sans" font-size="10.00">samtools_sort_tag</text>
</g>
<!-- 19&#45;&gt;22 -->
<g id="edge27" class="edge">
<title>19&#45;&gt;22</title>
<path fill="none" stroke="grey" stroke-width="2" d="M172.96,-1655.88C184.34,-1646.53 197.14,-1634.01 205,-1620 215.67,-1601 220.36,-1576.64 222.41,-1558.21"/>
<polygon fill="grey" stroke="grey" stroke-width="2" points="225.91,-1558.41 223.34,-1548.13 218.94,-1557.76 225.91,-1558.41"/>
</g>
<!-- 20&#45;&gt;18 -->
<g id="edge23" class="edge">
<title>20&#45;&gt;18</title>
<path fill="none" stroke="grey" stroke-width="2" d="M142.99,-1583.85C129.96,-1546.68 99.04,-1458.44 83.4,-1413.82"/>
<polygon fill="grey" stroke="grey" stroke-width="2" points="86.65,-1412.51 80.04,-1404.23 80.04,-1414.83 86.65,-1412.51"/>
</g>
<!-- 20&#45;&gt;22 -->
<g id="edge28" class="edge">
<title>20&#45;&gt;22</title>
<path fill="none" stroke="grey" stroke-width="2" d="M167.54,-1583.7C176.8,-1575.05 188.16,-1564.45 198.26,-1555.03"/>
<polygon fill="grey" stroke="grey" stroke-width="2" points="200.75,-1557.49 205.67,-1548.1 195.98,-1552.37 200.75,-1557.49"/>
</g>
<!-- 21 -->
<g id="node22" class="node">
<title>21</title>
<path fill="none" stroke="#d87d56" stroke-width="2" d="M250.5,-1476C250.5,-1476 209.5,-1476 209.5,-1476 203.5,-1476 197.5,-1470 197.5,-1464 197.5,-1464 197.5,-1452 197.5,-1452 197.5,-1446 203.5,-1440 209.5,-1440 209.5,-1440 250.5,-1440 250.5,-1440 256.5,-1440 262.5,-1446 262.5,-1452 262.5,-1452 262.5,-1464 262.5,-1464 262.5,-1470 256.5,-1476 250.5,-1476"/>
<text text-anchor="middle" x="230" y="-1455.5" font-family="sans" font-size="10.00">split_cells</text>
</g>
<!-- 21&#45;&gt;15 -->
<g id="edge17" class="edge">
<title>21&#45;&gt;15</title>
<path fill="none" stroke="grey" stroke-width="2" d="M262.91,-1444.17C280.97,-1435.47 302.22,-1422.22 315,-1404 338.23,-1370.89 334,-1355.45 334,-1315 334,-1315 334,-1315 334,-1241 334,-1199.04 315.6,-1153.36 302.07,-1125.44"/>
<polygon fill="grey" stroke="grey" stroke-width="2" points="305.13,-1123.73 297.53,-1116.34 298.87,-1126.86 305.13,-1123.73"/>
</g>
<!-- 21&#45;&gt;18 -->
<g id="edge24" class="edge">
<title>21&#45;&gt;18</title>
<path fill="none" stroke="grey" stroke-width="2" d="M197.3,-1442.33C175.27,-1432.44 145.88,-1419.25 121.31,-1408.23"/>
<polygon fill="grey" stroke="grey" stroke-width="2" points="122.71,-1405.02 112.16,-1404.12 119.85,-1411.41 122.71,-1405.02"/>
</g>
<!-- 25 -->
<g id="node26" class="node">
<title>25</title>
<path fill="none" stroke="#80d856" stroke-width="2" d="M294,-1404C294,-1404 178,-1404 178,-1404 172,-1404 166,-1398 166,-1392 166,-1392 166,-1380 166,-1380 166,-1374 172,-1368 178,-1368 178,-1368 294,-1368 294,-1368 300,-1368 306,-1374 306,-1380 306,-1380 306,-1392 306,-1392 306,-1398 300,-1404 294,-1404"/>
<text text-anchor="middle" x="236" y="-1383.5" font-family="sans" font-size="10.00">samtools_extract_ref_MT</text>
</g>
<!-- 21&#45;&gt;25 -->
<g id="edge31" class="edge">
<title>21&#45;&gt;25</title>
<path fill="none" stroke="grey" stroke-width="2" d="M231.48,-1439.7C232.14,-1431.98 232.94,-1422.71 233.68,-1414.11"/>
<polygon fill="grey" stroke="grey" stroke-width="2" points="237.17,-1414.37 234.53,-1404.1 230.19,-1413.77 237.17,-1414.37"/>
</g>
<!-- 22&#45;&gt;21 -->
<g id="edge26" class="edge">
<title>22&#45;&gt;21</title>
<path fill="none" stroke="grey" stroke-width="2" d="M225.48,-1511.7C226.14,-1503.98 226.94,-1494.71 227.68,-1486.11"/>
<polygon fill="grey" stroke="grey" stroke-width="2" points="231.17,-1486.37 228.53,-1476.1 224.19,-1485.77 231.17,-1486.37"/>
</g>
<!-- 23&#45;&gt;17 -->
<g id="edge20" class="edge">
<title>23&#45;&gt;17</title>
<path fill="none" stroke="grey" stroke-width="2" d="M105.03,-1295.7C114.54,-1287.05 126.21,-1276.45 136.57,-1267.03"/>
<polygon fill="grey" stroke="grey" stroke-width="2" points="139.14,-1269.42 144.19,-1260.1 134.43,-1264.24 139.14,-1269.42"/>
</g>
<!-- 24 -->
<g id="node25" class="node">
<title>24</title>
<path fill="none" stroke="#56b9d8" stroke-width="2" d="M292,-1332C292,-1332 186,-1332 186,-1332 180,-1332 174,-1326 174,-1320 174,-1320 174,-1308 174,-1308 174,-1302 180,-1296 186,-1296 186,-1296 292,-1296 292,-1296 298,-1296 304,-1302 304,-1308 304,-1308 304,-1320 304,-1320 304,-1326 298,-1332 292,-1332"/>
<text text-anchor="middle" x="239" y="-1311.5" font-family="sans" font-size="10.00">samtools_faidx_ref_MT</text>
</g>
<!-- 24&#45;&gt;17 -->
<g id="edge21" class="edge">
<title>24&#45;&gt;17</title>
<path fill="none" stroke="grey" stroke-width="2" d="M220.21,-1295.7C210.83,-1287.05 199.32,-1276.45 189.09,-1267.03"/>
<polygon fill="grey" stroke="grey" stroke-width="2" points="191.3,-1264.3 181.57,-1260.1 186.55,-1269.45 191.3,-1264.3"/>
</g>
<!-- 25&#45;&gt;24 -->
<g id="edge30" class="edge">
<title>25&#45;&gt;24</title>
<path fill="none" stroke="grey" stroke-width="2" d="M236.74,-1367.7C237.07,-1359.98 237.47,-1350.71 237.84,-1342.11"/>
<polygon fill="grey" stroke="grey" stroke-width="2" points="241.34,-1342.25 238.27,-1332.1 234.34,-1341.95 241.34,-1342.25"/>
</g>
</g>
</svg>
